<svg xmlns="http://www.w3.org/2000/svg" viewBox="0 0 400 424.621">
  <defs>
    <style>
      .cls-1 {
        fill: #e73859;
      }

      .cls-2 {
        fill: #c6c5c5;
      }

      .cls-3 {
        fill: #00b9f0;
      }
    </style>
  </defs>
  <title>Pretzel</title>
  <g id="Layer_2" data-name="Layer 2">
    <g id="Layer_1-2" data-name="Layer 1">
      <g>
        <path class="cls-1" d="M145.131,267.74l5.977.072a156.6,156.6,0,0,0,20.928-1.392l5.159-.7-1.32-5.039c-13.241-50.482-10.143-100.928,8.731-142.041,17.377-37.856,52.642-80.516,99.5-86.718a62.757,62.757,0,0,1,8.182-.534c25.1,0,48.959,14.732,60.772,37.532,10.14,19.579,11.277,43.944,3.377,72.43l-.753,2.711,2.069,1.907c6.121,5.638,12.024,11.631,17.542,17.815l5.231,5.854,2.561-7.42c9.462-27.418,17.032-67.877-.654-104.923C364.887,20.548,325.4-2.408,284.056.2,234.264,3.38,197.08,43.641,183.407,60.8a218.762,218.762,0,0,0-47.453,132.06,279.782,279.782,0,0,0,8.329,71.428Z"/>
        <path class="cls-2" d="M389.81,257.879a216.566,216.566,0,0,0-63.088-92.531c-25.883-22.434-59.279-39.979-96.573-50.746l-3.419-.984-1.818,3.053a148.721,148.721,0,0,0-10.326,21.06l-1.9,4.787,4.973,1.356C251.191,153,298.152,172.9,331.449,215.9c16.738,21.624,28.39,45.965,33.7,70.4,4.457,20.514,6.748,50-7.645,73.93-12.884,21.426-38.536,34.886-64.008,33.015-21.1-1.464-42.8-12.974-62.77-33.3l-1.973-2.009-2.687.84c-7.936,2.477-16.052,4.589-24.119,6.274l-7.7,1.608,5.168,5.932c18.142,20.808,47.936,46.6,86.853,51.31a100.793,100.793,0,0,0,11.922.714c37.526,0,72.529-20.982,89.172-53.457C408.879,329.175,398.193,282.346,389.81,257.879Z"/>
        <path class="cls-3" d="M316.114,264.513l2.564-2.459-1.731-3.107a157.613,157.613,0,0,0-12.869-19.537l-3.185-4.127-3.7,3.665c-35.8,35.438-79.283,57.788-122.429,62.941a192.946,192.946,0,0,1-22.833,1.344c-46.127,0-84.9-15.644-106.375-42.912-17.1-21.72-18.718-52.8-4.016-77.337,11.418-19.045,32.874-33.135,62.053-40.747l2.717-.708.615-2.741c1.812-8.086,4.052-16.2,6.664-24.131l2.453-7.444-7.7,1.482c-27.7,5.327-50.923,15.4-69.017,29.95A107.355,107.355,0,0,0,11.182,172.81,98.573,98.573,0,0,0,3.3,193.564,122.707,122.707,0,0,0,.652,210.642L.106,215.62c-1.832,37.406,20.205,74.008,57.515,95.536,26.69,15.4,59.231,23.544,94.108,23.544a232.307,232.307,0,0,0,32.214-2.273,210.563,210.563,0,0,0,69.074-22.08A278.41,278.41,0,0,0,316.114,264.513Z"/>
      </g>
    </g>
  </g>
</svg>
